<svg width="93" height="93" viewBox="0 0 93 93" fill="none" xmlns="http://www.w3.org/2000/svg">
<g clip-path="url(#clip0_1_30)">
<path d="M11.5178 86.0216C12.138 85.4014 12.1583 84.4068 11.563 83.8115C10.9676 83.2161 9.97305 83.2365 9.35284 83.8567C8.73262 84.4769 8.71228 85.4714 9.30764 86.0668C9.903 86.6622 10.8976 86.6418 11.5178 86.0216ZM9.70464 84.2085C10.1275 83.7856 10.7906 83.772 11.1965 84.178C11.6024 84.5839 11.5888 85.2469 11.166 85.6698C10.7431 86.0927 10.0665 86.0927 9.6606 85.6868C9.25468 85.2809 9.28177 84.6314 9.70464 84.2085Z" fill="#113b3e"/>
<path d="M16.0967 81.551C16.7169 80.9308 16.7372 79.9362 16.1419 79.3409C15.5465 78.7455 14.5519 78.7658 13.9317 79.386C13.3115 80.0063 13.2912 81.0008 13.8865 81.5962C14.4819 82.1915 15.4764 82.1712 16.0967 81.551ZM14.2835 79.7378C14.7064 79.315 15.3694 79.3014 15.7754 79.7073C16.1813 80.1133 16.1677 80.7763 15.7449 81.1992C15.322 81.6221 14.6589 81.6356 14.253 81.2297C13.8471 80.8238 13.8606 80.1607 14.2835 79.7378Z" fill="#113b3e"/>
<path d="M20.7342 76.9135C21.3544 76.2932 21.3747 75.2987 20.7794 74.7033C20.184 74.108 19.1894 74.1283 18.5692 74.7485C17.949 75.3687 17.9287 76.3633 18.524 76.9587C19.1194 77.554 20.114 77.5337 20.7342 76.9135ZM18.921 75.1003C19.3439 74.6775 20.0069 74.6639 20.4129 75.0698C20.8188 75.4757 20.8052 76.1388 20.3824 76.5617C19.9595 76.9845 19.2965 76.9981 18.8905 76.5922C18.4846 76.1862 18.5123 75.5091 18.921 75.1003Z" fill="#113b3e"/>
<path d="M6.96332 72.4177C3.53805 75.8429 0.852444 80.2334 2.28671 81.6677C2.92266 82.3036 4.12753 82.1271 5.54948 81.4629C5.56301 81.4764 7.83569 82.4241 7.83569 82.4241C7.918 82.45 8.00088 82.4483 8.0708 82.4055C8.08489 82.3914 8.11252 82.3908 8.14071 82.3626C8.183 82.3203 8.21176 82.2645 8.21289 82.2093L8.71084 79.4652C9.24366 79.0677 9.76351 78.629 10.2698 78.1768L12.6671 78.4316C12.75 78.4299 12.8194 78.4147 12.8757 78.3583C12.9321 78.3019 12.9614 78.2184 12.949 78.1497L12.6943 75.7524C13.1465 75.246 13.5716 74.7127 13.9827 74.1934L16.7267 73.6954C16.782 73.6943 16.8378 73.6655 16.8801 73.6232C16.8942 73.6091 16.9083 73.595 16.923 73.5533C16.9658 73.4834 16.9675 73.4005 16.9416 73.3182L15.9804 71.032C16.6587 69.596 16.8076 68.3917 16.1852 67.7692C14.7791 66.3068 10.3886 68.9924 6.96332 72.4177ZM15.4701 71.001L16.3772 73.2331L13.7859 73.6865C13.3461 74.2616 12.8364 74.8796 12.2856 75.4846L12.1305 75.6396L12.4298 77.8841L10.1853 77.5848L10.0302 77.7399C9.41114 78.3048 8.80728 78.8005 8.23218 79.2403L7.77877 81.8315L5.54669 80.9245C4.16589 81.6017 3.11382 81.7336 2.68083 81.3006C1.73367 80.3535 3.38183 76.7298 7.32866 72.783C11.2755 68.8362 14.8991 67.188 15.8328 68.1216C16.2793 68.5682 16.1338 69.6067 15.4701 71.001Z" fill="#113b3e"/>
<path d="M23.4241 77.038C22.747 76.389 21.6419 76.4116 20.9371 77.1164C20.2323 77.8212 20.2092 78.9539 20.8857 79.6305L23.849 82.5937L24.2296 82.2131C23.756 81.7395 21.2798 79.2634 21.2798 79.2634C20.7927 78.7763 20.8091 77.9751 21.3166 77.4677C21.824 76.9602 22.7199 77.0385 23.207 77.5257L26.062 80.3807L26.4426 80.0001L23.4241 77.038Z" fill="#113b3e"/>
<path d="M16.2996 81.7539C15.5948 82.4587 15.5717 83.5914 16.2482 84.268L19.2115 87.2312L19.5921 86.8506C19.1185 86.3771 16.6423 83.9009 16.6423 83.9009C16.1552 83.4138 16.1716 82.6126 16.679 82.1052C17.1865 81.5977 17.9877 81.5814 18.4748 82.0685C18.4883 82.082 20.8427 84.4364 21.4245 85.0182L21.8051 84.6376L18.8283 81.6608C18.1371 81.026 17.0044 81.0492 16.2996 81.7539Z" fill="#113b3e"/>
<path d="M11.7207 86.2246C11.0159 86.9294 10.9928 88.0621 11.6693 88.7386L14.6867 91.756L15.0673 91.3754C14.7967 91.1048 12.0634 88.3715 12.0499 88.358C11.5628 87.8709 11.5792 87.0697 12.0866 86.5623C12.5941 86.0548 13.3953 86.0384 13.8824 86.5256C13.8959 86.5391 16.4532 89.0964 16.8997 89.5429L17.2803 89.1624L14.2494 86.1314C13.5447 85.4831 12.4255 85.5198 11.7207 86.2246Z" fill="#113b3e"/>
<path d="M28.5229 67.8108C27.5539 67.8306 26.7339 67.5051 26.0631 66.8343C25.3923 66.1635 25.0668 65.3436 25.0867 64.3745C25.1033 63.4023 25.4611 62.5667 26.1598 61.8679C26.5884 61.4394 27.087 61.137 27.6556 60.9607L26.526 59.8311C26.0073 60.0903 25.5419 60.426 25.1299 60.838C24.1345 61.8335 23.6226 63.0225 23.5943 64.405C23.5661 65.7875 24.0297 66.9566 24.9853 67.9121C25.9408 68.8677 27.1099 69.3313 28.4924 69.303C29.8749 69.2747 31.0639 68.7629 32.0594 67.7675C32.4714 67.3554 32.8054 66.8885 33.0615 66.3666L31.9367 65.2418C31.7572 65.8073 31.4532 66.3042 31.0247 66.7328C30.3259 67.4316 29.492 67.791 28.5229 67.8108ZM30.4117 59.0493C30.3919 60.0183 30.7174 60.8383 31.3882 61.5091C32.059 62.1799 32.8789 62.5054 33.848 62.4856C34.817 62.4657 35.651 62.1064 36.3498 61.4076C37.0486 60.7088 37.4079 59.8749 37.4277 58.9058C37.4475 57.9368 37.122 57.1168 36.4512 56.446C35.7805 55.7752 34.9605 55.4497 33.9914 55.4695C33.0224 55.4894 32.1884 55.8487 31.4896 56.5475C30.7909 57.2463 30.4315 58.0802 30.4117 59.0493ZM33.8175 63.978C32.435 64.0063 31.2659 63.5426 30.3104 62.5871C29.3549 61.6315 28.8912 60.4625 28.9195 59.0799C28.9478 57.6974 29.4596 56.5084 30.4551 55.5129C31.4505 54.5175 32.6395 54.0056 34.022 53.9774C35.4046 53.9491 36.5736 54.4128 37.5292 55.3683C38.4847 56.3238 38.9484 57.4929 38.9201 58.8754C38.8918 60.258 38.3799 61.447 37.3845 62.4424C36.3891 63.4378 35.2001 63.9497 33.8175 63.978ZM39.0407 47.0697L43.896 51.925L36.0195 50.0909L34.8972 51.2132L41.689 58.0051L42.7619 56.9321L37.9066 52.0768L45.7879 53.9062L46.9102 52.7838L40.1184 45.992L39.0407 47.0697ZM45.3102 40.8002L50.1655 45.6555L42.289 43.8214L41.1667 44.9437L47.9585 51.7356L49.0314 50.6626L44.1761 45.8073L52.0574 47.6367L53.1798 46.5143L46.3879 39.7225L45.3102 40.8002ZM47.5054 38.605L54.2972 45.3968L57.9067 41.7874L56.8767 40.7574L54.3401 43.294L52.4796 41.4335L54.4376 39.4755L53.4076 38.4456L51.4497 40.4036L49.6081 38.562L52.1447 36.0254L51.1148 34.9955L47.5054 38.605ZM58.5948 37.7389C57.6258 37.7587 56.8058 37.4332 56.135 36.7624C55.4642 36.0916 55.1387 35.2717 55.1585 34.3026C55.1752 33.3304 55.5329 32.4948 56.2317 31.7961C56.6602 31.3675 57.1588 31.0651 57.7275 30.8888L56.5979 29.7592C56.0792 30.0185 55.6138 30.3541 55.2018 30.7661C54.2063 31.7616 53.6945 32.9506 53.6662 34.3331C53.638 35.7156 54.1016 36.8847 55.0571 37.8402C56.0127 38.7958 57.1817 39.2595 58.5643 39.2312C59.9468 39.2029 61.1358 38.691 62.1312 37.6956C62.5433 37.2835 62.8773 36.8166 63.1334 36.2947L62.0085 35.1699C61.8291 35.7354 61.5251 36.2324 61.0966 36.6609C60.3978 37.3597 59.5639 37.7191 58.5948 37.7389ZM57.1173 28.9931L58.1472 30.023L59.6454 28.5249L65.4074 34.2868L66.4852 33.209L60.7233 27.447L62.2214 25.9488L61.1915 24.9189L57.1173 28.9931ZM63.248 22.8814L62.175 23.9543L68.9574 30.7367L70.0303 29.6637L63.248 22.8814ZM67.5294 21.9316C67.5096 22.9007 67.8351 23.7207 68.5058 24.3914C69.1766 25.0622 69.9966 25.3877 70.9656 25.3679C71.9347 25.3481 72.7687 24.9887 73.4675 24.29C74.1662 23.5912 74.5256 22.7572 74.5454 21.7882C74.5652 20.8191 74.2397 19.9991 73.5689 19.3284C72.8981 18.6576 72.0782 18.3321 71.1091 18.3519C70.14 18.3717 69.3061 18.731 68.6073 19.4298C67.9085 20.1286 67.5492 20.9626 67.5294 21.9316ZM70.9352 26.8603C69.5526 26.8886 68.3836 26.4249 67.4281 25.4694C66.4725 24.5139 66.0088 23.3448 66.0371 21.9623C66.0654 20.5797 66.5773 19.3907 67.5727 18.3953C68.5681 17.3999 69.7572 16.8879 71.1397 16.8597C72.5222 16.8315 73.6913 17.2951 74.6468 18.2506C75.6024 19.2062 76.0661 20.3752 76.0378 21.7578C76.0095 23.1403 75.4976 24.3293 74.5022 25.3247C73.5067 26.3202 72.3177 26.8321 70.9352 26.8603ZM76.1583 9.95207L81.0136 14.8074L73.1372 12.9732L72.0148 14.0956L78.8066 20.8874L79.8796 19.8145L75.0243 14.9592L82.9055 16.7885L84.0279 15.6661L77.2361 8.87432L76.1583 9.95207ZM87.0909 12.7266C86.6038 13.1757 86.0518 13.4872 85.4347 13.6613C84.7364 13.8596 84.0962 13.8291 83.5138 13.5698L84.1665 12.2052C84.4578 12.3316 84.7968 12.3311 85.1836 12.2038C85.5218 12.0871 85.8307 11.9015 86.1104 11.6472C86.5382 11.251 86.7829 10.8133 86.8444 10.3342C86.8946 9.92954 86.8124 9.60672 86.5978 9.36571C86.1841 8.91246 85.3646 9.039 84.1393 9.74535C82.2181 10.8502 80.7934 10.8922 79.8649 9.87149C79.2112 9.15836 79.005 8.34244 79.2466 7.42373C79.4289 6.72257 79.8441 6.07636 80.4923 5.48514C81.2755 4.76522 82.1302 4.41356 83.0566 4.43015L82.9728 5.91877C82.4499 5.91006 81.9499 6.12532 81.4727 6.56455C81.137 6.87491 80.9013 7.18971 80.7657 7.50891C80.5552 8.01047 80.6284 8.45618 80.9853 8.846C81.3927 9.29293 82.209 9.1632 83.4343 8.45688C84.5387 7.82081 85.5 7.54927 86.3182 7.64235C86.8852 7.70825 87.3518 7.94085 87.7182 8.34022C88.2297 8.90448 88.4315 9.61395 88.3237 10.4686C88.2203 11.2618 87.8554 11.9715 87.2291 12.5978C87.183 12.6439 87.1369 12.6869 87.0909 12.7266Z" fill="#113b3e"/>
</g>
<defs>
<clipPath id="clip0_1_30">
<rect width="112.262" height="19.1355" fill="white" transform="translate(0 79.381) rotate(-45)"/>
</clipPath>
</defs>
</svg>
